<svg width="155" height="62" fill="none" xmlns="http://www.w3.org/2000/svg"><path d="M11.971 14.88c1.43 0 2.798.127 4.102.381 1.335.255 2.654.684 3.958 1.288l-.858 2.814c-1.368-.636-2.608-1.081-3.72-1.335a14.53 14.53 0 00-3.339-.382c-1.94 0-3.497.445-4.674 1.335-1.176.859-1.764 2.083-1.764 3.673 0 1.399.445 2.512 1.335 3.338.89.795 2.273 1.494 4.15 2.099l3.195 1.049c2.448.826 4.228 1.955 5.341 3.386 1.145 1.399 1.717 3.005 1.717 4.817 0 1.303-.254 2.48-.763 3.53a7.457 7.457 0 01-2.05 2.622c-.891.7-1.956 1.256-3.196 1.67-1.24.381-2.607.572-4.102.572-1.526 0-3.052-.143-4.578-.43-1.494-.286-3.005-.778-4.53-1.478l.905-2.814c1.336.668 2.64 1.16 3.911 1.479 1.304.286 2.67.429 4.102.429 1.94 0 3.545-.43 4.817-1.288 1.303-.858 1.955-2.178 1.955-3.958 0-.636-.095-1.224-.286-1.765a3.773 3.773 0 00-.906-1.574c-.445-.477-1.05-.922-1.813-1.335-.763-.445-1.732-.858-2.909-1.24l-3.1-1.002c-2.003-.635-3.625-1.558-4.865-2.766-1.24-1.24-1.86-2.877-1.86-4.912 0-2.512.843-4.499 2.528-5.962 1.685-1.494 4.118-2.241 7.297-2.241zm30.237 0c1.908 0 3.688.318 5.341.954a11.248 11.248 0 014.34 2.909c1.209 1.272 2.162 2.877 2.862 4.817.7 1.908 1.05 4.15 1.05 6.725 0 2.511-.367 4.737-1.098 6.676-.7 1.908-1.669 3.514-2.909 4.817a12.17 12.17 0 01-4.388 2.957c-1.685.668-3.481 1.002-5.389 1.002-1.908 0-3.704-.318-5.39-.954a12.09 12.09 0 01-4.291-2.91c-1.209-1.303-2.162-2.908-2.862-4.816-.7-1.94-1.05-4.197-1.05-6.773 0-2.511.35-4.721 1.05-6.629.731-1.907 1.717-3.513 2.957-4.817a12.267 12.267 0 014.34-2.957c1.685-.667 3.497-1.001 5.437-1.001zm-10.11 15.405c0 2.162.27 4.037.81 5.627.54 1.59 1.272 2.91 2.194 3.959.922 1.049 1.987 1.828 3.195 2.337 1.24.508 2.544.763 3.91.763 1.368 0 2.64-.255 3.816-.763 1.208-.51 2.258-1.288 3.148-2.337.922-1.05 1.637-2.37 2.146-3.959.54-1.59.81-3.465.81-5.627 0-2.194-.27-4.086-.81-5.676-.54-1.621-1.272-2.941-2.194-3.958a8.4 8.4 0 00-3.243-2.242 9.853 9.853 0 00-3.863-.763 9.853 9.853 0 00-3.863.763c-1.176.509-2.226 1.288-3.148 2.337-.89 1.05-1.605 2.369-2.146 3.959-.509 1.59-.763 3.45-.763 5.58zm27.755-15.023h3.434v27.184h13.307v2.862h-16.74V15.262zm27.233 18.695H97.96l-2.385-6.438a77.94 77.94 0 01-1.383-3.768c-.477-1.43-.985-2.989-1.526-4.674h-.095a67.98 67.98 0 01-.763 2.337 76.11 76.11 0 01-.763 2.098 50.519 50.519 0 01-.716 2.004 41.745 41.745 0 01-.763 2.003l-2.48 6.438zm4.006-18.695h3.196l11.637 30.046H102.3l-3.29-8.585H86.131l-3.29 8.585h-3.577l11.827-30.046zm18.839 0h9.252c1.558 0 2.925.222 4.102.667 1.207.414 2.209 1.002 3.004 1.765a7.473 7.473 0 011.812 2.766c.414 1.05.62 2.21.62 3.482 0 1.144-.175 2.194-.524 3.147a8.041 8.041 0 01-1.431 2.433 8.154 8.154 0 01-2.003 1.764 11.71 11.71 0 01-2.385 1.145l8.156 12.877h-3.911l-7.44-12.257h-6.057v12.257h-3.195V15.262zm3.195 15.023h4.579c1.049 0 2.018-.111 2.909-.334.921-.254 1.717-.636 2.384-1.145a5.391 5.391 0 001.574-1.907c.382-.795.573-1.733.573-2.814 0-2.099-.605-3.625-1.813-4.579-1.177-.985-2.925-1.478-5.246-1.478h-4.96v12.257zm21.843-15.023h17.646v2.814h-14.212v10.301h12.972v2.814h-12.972v11.303h14.355v2.814h-17.789V15.262z" fill="#4CB4FF"/><path d="M1.788 48.884h19.673c1.789 0 2.98-1.192 2.98-2.98 0-2.981.105-26.23.105-31 0-1.193.492-2.981 2.877-2.981h15.604c12.393.024 95.28 0 108.992 0" stroke="#4CB4FF" stroke-linecap="square"/></svg>